<?xml version="1.0" ?><svg id="Layer_3" style="enable-background:new 0 0 64 64;" version="1.1" viewBox="0 0 64 64" xml:space="preserve" xmlns="http://www.w3.org/2000/svg" xmlns:xlink="http://www.w3.org/1999/xlink"><g><path d="M63,19v-2c0-0.443-0.292-0.834-0.718-0.959l-4.084-1.201l3.696-7.393c0.13-0.26,0.141-0.562,0.029-0.83   s-0.333-0.475-0.607-0.565l-3-1c-0.318-0.108-0.666-0.047-0.931,0.159l-8.76,6.813L12.637,1.439   c-2.102-0.62-4.376-0.579-6.461,0.114L3.073,2.588C1.833,3.002,1,4.159,1,5.466c0,1.347,0.904,2.547,2.2,2.918l23.695,6.769   l-0.843,2.53c-0.175,0.524,0.108,1.091,0.632,1.265l9,3C35.786,21.982,35.893,22,36,22h2c0.527,0,0.947-0.411,0.985-0.928   l4.488,2.778C43.632,23.948,43.814,24,44,24h6c0.425,0,0.803-0.269,0.943-0.669s0.013-0.847-0.318-1.112L47.852,20h4.394   l5.276,2.878C57.668,22.958,57.833,23,58,23h4c0.435,0,0.819-0.281,0.952-0.694c0.133-0.414-0.018-0.867-0.371-1.119L60.92,20H62   C62.553,20,63,19.553,63,19z M58.191,7.118l1.398,0.466l-3.341,6.682l-5.259-1.547L58.191,7.118z M37,20h-0.838l-7.897-2.633   l0.555-1.664l2.772,0.792L37,19.843V20z M44.284,22l-14.457-8.949l9.702,2.854L47.149,22H44.284z M45.352,18l-4.727-3.781   c-0.102-0.081-0.218-0.142-0.343-0.178l-17-5c-0.479-0.145-0.991,0.094-1.195,0.551s-0.039,0.995,0.387,1.259l2.877,1.781   l-21.6-6.17C3.309,6.334,3,5.925,3,5.466c0-0.445,0.284-0.84,0.707-0.98l3.102-1.034c1.697-0.565,3.551-0.599,5.263-0.094   l42.982,12.641l-7.929-0.991c-0.469-0.055-0.928,0.229-1.076,0.686c-0.147,0.457,0.052,0.954,0.474,1.185L48.579,18H45.352z    M58.255,21l-6.148-3.354l2.519,0.314L58.88,21H58.255z M61,18h-2.88l-2.539-1.813c-0.04-0.029-0.086-0.048-0.13-0.07L61,17.748V18   z"/><path d="M22,21C10.421,21,1,30.421,1,42s9.421,21,21,21s21-9.421,21-21S33.579,21,22,21z M22,61C11.523,61,3,52.477,3,42   s8.523-19,19-19s19,8.523,19,19S32.477,61,22,61z"/><path d="M32.654,35.627c0.074,0.005,0.151,0.023,0.223,0.023c0.728,0,1.38-0.249,1.851-0.721c0.613-0.613,0.851-1.533,0.652-2.524   c-0.172-0.859-0.654-1.721-1.359-2.425c-0.704-0.705-1.565-1.188-2.425-1.359c-0.992-0.197-1.91,0.039-2.524,0.651   c0,0.001,0,0.001,0,0.001c-0.518,0.517-0.749,1.257-0.695,2.07c-0.626,0.589-1.268,1.161-1.936,1.694   c-1.094-0.544-2.26-0.864-3.44-0.984v-1.997c0.558,0.046,1.113,0.116,1.657,0.239l0.439-1.951c-1.994-0.45-4.108-0.455-6.108-0.019   l0.428,1.953c0.521-0.114,1.051-0.18,1.584-0.224v2.005c-1.176,0.119-2.333,0.443-3.421,0.982c-0.676-0.539-1.325-1.11-1.955-1.703   c0.053-0.812-0.178-1.551-0.695-2.067c0,0,0,0,0-0.001c-0.614-0.612-1.537-0.85-2.524-0.651c-0.859,0.172-1.721,0.654-2.425,1.359   c-0.705,0.704-1.188,1.565-1.359,2.425c-0.198,0.991,0.039,1.911,0.651,2.524c0.472,0.471,1.124,0.721,1.852,0.721   c0.072,0,0.147-0.018,0.22-0.022c0.592,0.629,1.162,1.277,1.699,1.952c-0.539,1.086-0.862,2.243-0.98,3.421h-2.008   c0.044-0.533,0.111-1.063,0.225-1.583l-1.953-0.428c-0.438,1.999-0.432,4.111,0.019,6.107l1.951-0.439   c-0.123-0.544-0.193-1.099-0.239-1.657h2.003c0.12,1.176,0.438,2.34,0.98,3.438c-0.533,0.668-1.106,1.311-1.696,1.938   c-0.811-0.054-1.554,0.177-2.07,0.695c0,0,0,0-0.001,0c-0.612,0.613-0.85,1.533-0.651,2.524c0.172,0.859,0.654,1.721,1.359,2.425   c0.704,0.705,1.565,1.188,2.425,1.359c0.229,0.046,0.454,0.068,0.673,0.068c0.728,0,1.38-0.249,1.852-0.72   c0.518-0.518,0.749-1.258,0.695-2.071c0.626-0.589,1.268-1.161,1.936-1.694c1.094,0.544,2.26,0.864,3.44,0.984v1.999   c-0.533-0.044-1.063-0.111-1.584-0.225l-0.428,1.953c0.985,0.216,1.998,0.324,3.012,0.324c1.042,0,2.085-0.114,3.098-0.343   l-0.439-1.951c-0.544,0.123-1.1,0.193-1.658,0.239V51.94c1.176-0.119,2.333-0.443,3.421-0.982c0.676,0.539,1.325,1.11,1.955,1.703   c-0.053,0.812,0.178,1.551,0.695,2.067c0.471,0.472,1.124,0.721,1.852,0.721c0.219,0,0.444-0.022,0.673-0.068   c0.859-0.172,1.721-0.654,2.425-1.359c0.705-0.704,1.188-1.565,1.359-2.425c0.198-0.991-0.039-1.911-0.651-2.524   c-0.001,0-0.001,0-0.001,0c-0.516-0.517-1.258-0.749-2.068-0.695c-0.593-0.63-1.164-1.279-1.702-1.955   c0.539-1.086,0.862-2.243,0.98-3.421h2.008c-0.044,0.533-0.111,1.063-0.225,1.584l1.953,0.428c0.438-2,0.432-4.112-0.019-6.109   l-1.951,0.439c0.123,0.544,0.193,1.1,0.239,1.658h-2.002c-0.12-1.176-0.438-2.34-0.98-3.438   C31.493,36.894,32.065,36.253,32.654,35.627z M30.485,30.688C30.485,30.687,30.485,30.687,30.485,30.688   c0.089-0.09,0.243-0.137,0.434-0.137c0.088,0,0.184,0.01,0.285,0.03c0.469,0.094,0.98,0.39,1.402,0.812   c0.423,0.422,0.719,0.934,0.812,1.402c0.063,0.32,0.024,0.589-0.106,0.719c-0.128,0.13-0.395,0.171-0.717,0.105   c-0.47-0.094-0.98-0.39-1.403-0.812s-0.719-0.934-0.812-1.403C30.316,31.085,30.355,30.816,30.485,30.688z M10.581,32.796   c0.094-0.469,0.39-0.98,0.812-1.402c0.422-0.423,0.934-0.719,1.402-0.812c0.102-0.021,0.197-0.03,0.285-0.03   c0.19,0,0.345,0.047,0.434,0.136c0,0,0,0,0,0.001c0.13,0.129,0.169,0.397,0.105,0.717c-0.094,0.47-0.39,0.98-0.812,1.403   s-0.934,0.719-1.403,0.812c-0.319,0.065-0.588,0.024-0.718-0.105S10.518,33.116,10.581,32.796z M13.515,53.313   c-0.13,0.13-0.397,0.17-0.719,0.105c-0.469-0.094-0.98-0.39-1.402-0.812c-0.423-0.422-0.719-0.934-0.812-1.402   c-0.063-0.32-0.024-0.589,0.105-0.719c0,0,0,0,0.001,0c0.088-0.089,0.241-0.136,0.432-0.136c0.088,0,0.184,0.01,0.285,0.03   c0.47,0.094,0.98,0.39,1.403,0.812s0.719,0.934,0.812,1.403C13.684,52.915,13.645,53.184,13.515,53.313z M33.419,51.204   c-0.094,0.469-0.39,0.98-0.812,1.402c-0.422,0.423-0.934,0.719-1.402,0.812c-0.321,0.064-0.589,0.024-0.719-0.106   c-0.13-0.129-0.169-0.397-0.105-0.717c0.094-0.47,0.39-0.98,0.812-1.403s0.934-0.719,1.403-0.812   c0.102-0.021,0.197-0.03,0.285-0.03c0.19,0,0.344,0.047,0.432,0.136c0.001,0,0.001,0,0.001,0   C33.443,50.615,33.482,50.884,33.419,51.204z M29.933,43c-0.067,0.526-0.189,1.045-0.361,1.553   c-0.345-0.505-0.677-1.019-0.991-1.543l-0.062-0.105l-1.721,1.02l0.065,0.11c1.083,1.806,2.342,3.506,3.746,5.078   c-0.291,0.194-0.573,0.409-0.83,0.666s-0.473,0.539-0.666,0.83c-1.573-1.404-3.273-2.663-5.083-3.749l-0.105-0.062l-1.02,1.721   l0.101,0.06c0.526,0.315,1.041,0.648,1.547,0.994c-0.508,0.172-1.026,0.296-1.552,0.362v-0.862h-2v0.87   c-1.051-0.134-2.084-0.475-3.036-1.032c-0.35-0.205-0.789-0.177-1.112,0.068c-0.672,0.514-1.324,1.065-1.961,1.635   c-0.194-0.292-0.411-0.576-0.669-0.834s-0.542-0.475-0.834-0.669c0.57-0.637,1.121-1.289,1.635-1.961   c0.245-0.321,0.254-0.792,0.051-1.142c-0.547-0.943-0.881-1.966-1.013-3.007h0.868v-2h-0.862c0.067-0.526,0.189-1.045,0.361-1.553   c0.345,0.505,0.677,1.019,0.991,1.543l0.062,0.105l1.721-1.02l-0.065-0.11c-1.083-1.806-2.342-3.506-3.746-5.078   c0.291-0.194,0.573-0.409,0.83-0.666s0.473-0.539,0.666-0.83c1.573,1.404,3.273,2.663,5.083,3.749l0.105,0.062l1.02-1.721   l-0.101-0.06c-0.526-0.315-1.041-0.648-1.547-0.994c0.508-0.172,1.026-0.295,1.552-0.362v0.862h2v-0.87   c1.051,0.133,2.084,0.474,3.036,1.032c0.156,0.092,0.331,0.137,0.505,0.137c0.215,0,0.429-0.069,0.607-0.205   c0.672-0.514,1.324-1.065,1.961-1.635c0.194,0.292,0.411,0.576,0.669,0.834s0.542,0.475,0.834,0.669   c-0.57,0.637-1.121,1.289-1.635,1.961c-0.245,0.321-0.254,0.792-0.051,1.142c0.547,0.943,0.881,1.966,1.013,3.007h-0.868v2H29.933z   "/><rect height="2" transform="matrix(0.7071 -0.7071 0.7071 0.7071 -26.2044 24.9791)" width="2" x="16.05" y="43.121"/><rect height="2" transform="matrix(0.7071 -0.7071 0.7071 0.7071 -25.9617 28.3933)" width="2" x="20.293" y="44.535"/><rect height="2" transform="matrix(0.7071 -0.7071 0.7071 0.7071 -22.3762 25.7368)" width="2" x="18.879" y="38.879"/><rect height="2" transform="matrix(0.7071 -0.7071 0.7071 0.7071 -22.4265 29.8577)" width="2" x="23.828" y="41"/><rect height="2" transform="matrix(0.7071 -0.7071 0.7071 0.7071 -19.4265 28.615)" width="2" x="23.828" y="36.757"/><rect height="2" width="1" x="45" y="41"/><rect height="2" width="2" x="48" y="41"/><rect height="2" width="2" x="52" y="41"/><path d="M56,43h1c0.553,0,1-0.447,1-1v-1h-2V43z"/><rect height="2.143" width="2" x="56" y="28.144"/><rect height="2.143" width="2" x="56" y="32.429"/><rect height="2.143" width="2" x="56" y="36.715"/><rect height="1" width="2" x="56" y="25"/></g></svg>